# Blender 3.4.1
# www.blender.org
mtllib CuboTextured.mtl
o Cube
v 0.500000 -0.500000 0.543225
v -0.500000 -0.500000 0.543225
v 0.500000 0.500000 0.543224
v -0.500000 0.500000 0.543225
v 0.500000 -0.500000 -0.543225
v -0.500000 -0.500000 -0.543225
v 0.500000 0.500000 -0.543225
v -0.500000 0.500000 -0.543225
v -0.572933 -0.296650 -0.622462
v -0.609568 0.000000 -0.662264
v -0.572933 0.296650 -0.622462
v -0.572933 -0.572933 0.322295
v -0.609568 -0.609568 -0.000000
v -0.572933 -0.572933 -0.322295
v 0.296650 -0.572933 0.622462
v 0.000000 -0.609568 0.662264
v -0.296650 -0.572933 0.622462
v -0.296650 0.572933 -0.622462
v 0.000000 0.609568 -0.662264
v 0.296650 0.572933 -0.622462
v 0.296650 0.572933 0.622462
v 0.000000 0.609568 0.662264
v -0.296650 0.572933 0.622462
v 0.296650 -0.572933 -0.622462
v 0.000000 -0.609568 -0.662264
v -0.296650 -0.572933 -0.622462
v 0.572933 0.572933 0.322295
v 0.609568 0.609568 0.000000
v 0.572933 0.572933 -0.322295
v 0.572933 -0.296650 0.622462
v 0.609568 -0.000000 0.662264
v 0.572933 0.296650 0.622462
v -0.572933 0.572933 -0.322295
v -0.609568 0.609568 0.000000
v -0.572933 0.572933 0.322295
v 0.572933 0.296650 -0.622462
v 0.609568 0.000000 -0.662264
v 0.572933 -0.296650 -0.622462
v 0.572933 -0.572933 -0.322295
v 0.609568 -0.609568 -0.000000
v 0.572933 -0.572933 0.322295
v -0.572933 0.296650 0.622462
v -0.609568 -0.000000 0.662264
v -0.572933 -0.296650 0.622462
v 0.728990 -0.316157 0.343489
v 0.781829 -0.333141 -0.000000
v 0.728990 -0.316157 -0.343489
v 0.781829 -0.000000 0.361940
v 0.839506 0.000000 0.000000
v 0.781829 0.000000 -0.361940
v 0.728990 0.316157 0.343489
v 0.781829 0.333140 0.000000
v 0.728990 0.316157 -0.343489
v -0.316157 0.728990 0.343489
v 0.000000 0.781829 0.361940
v 0.316157 0.728990 0.343489
v -0.333140 0.781829 0.000000
v 0.000000 0.839506 0.000000
v 0.333141 0.781829 0.000000
v -0.316157 0.728990 -0.343489
v 0.000000 0.781829 -0.361940
v 0.316157 0.728990 -0.343489
v -0.316157 0.316157 -0.792010
v 0.000000 0.333140 -0.849417
v 0.316157 0.316157 -0.792010
v -0.333140 0.000000 -0.849417
v 0.000000 0.000000 -0.912081
v 0.333140 0.000000 -0.849417
v -0.316157 -0.316157 -0.792010
v 0.000000 -0.333141 -0.849417
v 0.316157 -0.316157 -0.792010
v -0.728990 -0.316157 -0.343489
v -0.781829 -0.333140 -0.000000
v -0.728990 -0.316157 0.343489
v -0.781829 0.000000 -0.361940
v -0.839506 0.000000 0.000000
v -0.781829 -0.000000 0.361940
v -0.728990 0.316157 -0.343489
v -0.781829 0.333141 0.000000
v -0.728990 0.316157 0.343489
v -0.316157 -0.316157 0.792010
v 0.000000 -0.333140 0.849417
v 0.316157 -0.316157 0.792010
v -0.333141 -0.000000 0.849417
v 0.000000 -0.000000 0.912081
v 0.333140 -0.000000 0.849417
v -0.316157 0.316157 0.792010
v 0.000000 0.333141 0.849417
v 0.316157 0.316157 0.792010
v -0.316157 -0.728990 -0.343489
v 0.000000 -0.781829 -0.361940
v 0.316157 -0.728990 -0.343489
v -0.333141 -0.781829 -0.000000
v 0.000000 -0.839506 -0.000000
v 0.333140 -0.781829 -0.000000
v -0.316157 -0.728990 0.343489
v 0.000000 -0.781829 0.361940
v 0.316157 -0.728990 0.343489
vn 0.8868 -0.3394 0.3137
vn 1.0000 -0.0000 -0.0000
vn 0.9430 -0.0000 0.3328
vn 0.8868 -0.3394 -0.3137
vn 0.9347 -0.3554 -0.0000
vn 0.8868 0.3394 0.3137
vn 0.8868 0.3394 -0.3137
vn 0.9347 0.3554 -0.0000
vn 0.5921 -0.5921 0.5466
vn 0.6953 -0.3146 0.6462
vn 0.6783 -0.6783 0.2825
vn 0.6783 -0.6783 -0.2825
vn 0.7071 -0.7071 -0.0000
vn 0.5922 -0.5921 -0.5466
vn 0.6953 -0.3146 -0.6462
vn 0.9430 -0.0000 -0.3328
vn 0.8868 -0.3393 -0.3137
vn 0.6953 0.3146 -0.6462
vn 0.8868 0.3393 -0.3137
vn 0.5922 0.5921 -0.5466
vn 0.6783 0.6783 -0.2825
vn 0.7071 0.7071 -0.0000
vn 0.6783 0.6783 0.2825
vn 0.5921 0.5921 0.5466
vn 0.6953 0.3146 0.6462
vn 0.7316 -0.0000 0.6818
vn -0.3394 0.8868 0.3137
vn -0.0000 1.0000 -0.0000
vn -0.3554 0.9347 -0.0000
vn 0.3394 0.8868 0.3137
vn -0.0000 0.9430 0.3328
vn -0.3394 0.8868 -0.3137
vn 0.3394 0.8868 -0.3137
vn -0.0000 0.9430 -0.3328
vn -0.5921 0.5922 0.5466
vn -0.6783 0.6783 0.2825
vn -0.3146 0.6953 0.6462
vn -0.3393 0.8868 0.3137
vn 0.3146 0.6953 0.6462
vn -0.0000 0.7316 0.6818
vn 0.3554 0.9347 -0.0000
vn 0.5921 0.5921 -0.5466
vn 0.3146 0.6953 -0.6462
vn -0.0000 0.7316 -0.6818
vn -0.3146 0.6953 -0.6462
vn -0.3393 0.8868 -0.3137
vn -0.5921 0.5922 -0.5466
vn -0.6783 0.6783 -0.2825
vn -0.7071 0.7071 -0.0000
vn -0.3560 0.3560 -0.8640
vn -0.0000 -0.0000 -1.0000
vn -0.3785 -0.0000 -0.9256
vn 0.3560 0.3560 -0.8640
vn -0.0000 0.3785 -0.9256
vn -0.3560 -0.3560 -0.8640
vn 0.3560 -0.3560 -0.8640
vn -0.0000 -0.3785 -0.9256
vn -0.5921 0.5921 -0.5466
vn -0.6953 0.3146 -0.6462
vn -0.0000 0.3784 -0.9256
vn 0.3784 -0.0000 -0.9256
vn 0.5921 -0.5921 -0.5466
vn 0.3146 -0.6953 -0.6462
vn -0.0000 -0.3784 -0.9256
vn -0.0000 -0.7316 -0.6818
vn -0.3146 -0.6953 -0.6462
vn -0.5921 -0.5921 -0.5466
vn -0.6953 -0.3146 -0.6462
vn -0.3784 -0.0000 -0.9256
vn -0.7316 -0.0000 -0.6818
vn -0.8868 -0.3394 -0.3137
vn -1.0000 -0.0000 -0.0000
vn -0.9430 -0.0000 -0.3328
vn -0.8868 -0.3394 0.3137
vn -0.9347 -0.3554 -0.0000
vn -0.8868 0.3394 -0.3137
vn -0.8868 0.3394 0.3137
vn -0.9347 0.3554 -0.0000
vn -0.6783 -0.6783 -0.2825
vn -0.6783 -0.6783 0.2825
vn -0.7071 -0.7071 -0.0000
vn -0.5922 -0.5921 0.5466
vn -0.6953 -0.3146 0.6462
vn -0.9430 -0.0000 0.3328
vn -0.8868 -0.3393 0.3137
vn -0.6953 0.3146 0.6462
vn -0.8868 0.3393 0.3137
vn -0.5922 0.5921 0.5466
vn -0.3560 -0.3560 0.8640
vn -0.0000 -0.0000 1.0000
vn -0.3785 -0.0000 0.9256
vn 0.3560 -0.3560 0.8640
vn -0.0000 -0.3785 0.9256
vn -0.3560 0.3560 0.8640
vn 0.3560 0.3560 0.8640
vn -0.0000 0.3785 0.9256
vn -0.5921 -0.5921 0.5466
vn -0.3146 -0.6953 0.6462
vn -0.0000 -0.3784 0.9256
vn 0.3146 -0.6953 0.6462
vn -0.0000 -0.7316 0.6818
vn 0.3784 -0.0000 0.9256
vn -0.0000 0.3784 0.9256
vn -0.5921 0.5921 0.5466
vn -0.3784 -0.0000 0.9256
vn -0.7316 -0.0000 0.6818
vn -0.3394 -0.8868 -0.3137
vn -0.0000 -1.0000 -0.0000
vn -0.3554 -0.9347 -0.0000
vn 0.3394 -0.8868 -0.3137
vn -0.0000 -0.9430 -0.3328
vn -0.3394 -0.8868 0.3137
vn 0.3394 -0.8868 0.3137
vn -0.0000 -0.9430 0.3328
vn -0.5921 -0.5922 -0.5466
vn -0.3393 -0.8868 -0.3137
vn 0.3554 -0.9347 -0.0000
vn -0.3393 -0.8868 0.3137
vn -0.5921 -0.5922 0.5466
vn 0.5922 -0.5921 0.5466
vn 0.7316 -0.0000 -0.6818
vn 0.5922 0.5921 0.5466
vn 0.8868 0.3393 0.3137
vn 0.8868 -0.3393 0.3137
vn 0.3393 0.8868 0.3137
vn 0.5921 0.5922 0.5466
vn 0.5921 0.5922 -0.5466
vn 0.3393 0.8868 -0.3137
vn 0.3785 -0.0000 -0.9256
vn -0.5922 -0.5921 -0.5466
vn -0.5922 0.5921 -0.5466
vn -0.8868 0.3393 -0.3137
vn -0.8868 -0.3393 -0.3137
vn 0.3785 -0.0000 0.9256
vn 0.3393 -0.8868 -0.3137
vn 0.5921 -0.5922 -0.5466
vn 0.5921 -0.5922 0.5466
vn 0.3393 -0.8868 0.3137
vt 0.625000 0.500000
vt 0.375000 0.500000
vt 0.625000 0.750000
vt 0.375000 0.750000
vt 0.875000 0.500000
vt 0.625000 0.250000
vt 0.125000 0.500000
vt 0.375000 0.250000
vt 0.875000 0.750000
vt 0.625000 1.000000
vt 0.625000 0.000000
vt 0.375000 1.000000
vt 0.375000 0.000000
vt 0.125000 0.750000
vt 0.375000 0.187500
vt 0.125000 0.562500
vt 0.375000 0.125000
vt 0.125000 0.625000
vt 0.375000 0.062500
vt 0.125000 0.687500
vt 0.312500 0.500000
vt 0.375000 0.437500
vt 0.375000 0.375000
vt 0.250000 0.500000
vt 0.187500 0.500000
vt 0.375000 0.312500
vt 0.562500 0.500000
vt 0.500000 0.500000
vt 0.437500 0.500000
vt 0.437500 1.000000
vt 0.437500 0.000000
vt 0.500000 1.000000
vt 0.500000 0.000000
vt 0.562500 1.000000
vt 0.562500 0.000000
vt 0.562500 0.750000
vt 0.500000 0.750000
vt 0.437500 0.750000
vt 0.562500 0.250000
vt 0.500000 0.250000
vt 0.437500 0.250000
vt 0.687500 0.750000
vt 0.625000 0.812500
vt 0.750000 0.750000
vt 0.625000 0.875000
vt 0.812500 0.750000
vt 0.625000 0.937500
vt 0.625000 0.562500
vt 0.625000 0.625000
vt 0.625000 0.687500
vt 0.375000 0.937500
vt 0.187500 0.750000
vt 0.375000 0.875000
vt 0.250000 0.750000
vt 0.375000 0.812500
vt 0.312500 0.750000
vt 0.875000 0.687500
vt 0.625000 0.062500
vt 0.875000 0.625000
vt 0.625000 0.125000
vt 0.875000 0.562500
vt 0.625000 0.187500
vt 0.812500 0.500000
vt 0.625000 0.312500
vt 0.750000 0.500000
vt 0.625000 0.375000
vt 0.687500 0.500000
vt 0.625000 0.437500
vt 0.375000 0.687500
vt 0.375000 0.625000
vt 0.375000 0.562500
vt 0.687500 0.562500
vt 0.750000 0.562500
vt 0.812500 0.562500
vt 0.687500 0.625000
vt 0.750000 0.625000
vt 0.812500 0.625000
vt 0.687500 0.687500
vt 0.750000 0.687500
vt 0.812500 0.687500
vt 0.437500 0.812500
vt 0.500000 0.812500
vt 0.562500 0.812500
vt 0.437500 0.875000
vt 0.500000 0.875000
vt 0.562500 0.875000
vt 0.437500 0.937500
vt 0.500000 0.937500
vt 0.562500 0.937500
vt 0.437500 0.062500
vt 0.500000 0.062500
vt 0.562500 0.062500
vt 0.437500 0.125000
vt 0.500000 0.125000
vt 0.562500 0.125000
vt 0.437500 0.187500
vt 0.500000 0.187500
vt 0.562500 0.187500
vt 0.187500 0.562500
vt 0.250000 0.562500
vt 0.312500 0.562500
vt 0.187500 0.625000
vt 0.250000 0.625000
vt 0.312500 0.625000
vt 0.187500 0.687500
vt 0.250000 0.687500
vt 0.312500 0.687500
vt 0.437500 0.562500
vt 0.500000 0.562500
vt 0.562500 0.562500
vt 0.437500 0.625000
vt 0.500000 0.625000
vt 0.562500 0.625000
vt 0.437500 0.687500
vt 0.500000 0.687500
vt 0.562500 0.687500
vt 0.437500 0.312500
vt 0.500000 0.312500
vt 0.562500 0.312500
vt 0.437500 0.375000
vt 0.500000 0.375000
vt 0.562500 0.375000
vt 0.437500 0.437500
vt 0.500000 0.437500
vt 0.562500 0.437500
s 0
usemtl Material.001
f 45/72/1 49/76/2 48/75/3
f 47/74/4 49/76/2 46/73/5
f 49/76/2 51/78/6 48/75/3
f 49/76/2 53/80/7 52/79/8
f 1/1/9 45/72/1 30/48/10
f 41/67/11 46/73/5 45/72/1
f 39/63/12 46/73/5 40/65/13
f 5/5/14 47/74/4 39/63/12
f 38/61/15 50/77/16 47/74/17
f 50/77/16 36/57/18 53/80/19
f 53/80/7 7/9/20 29/46/21
f 52/79/8 29/46/21 28/44/22
f 52/79/8 27/42/23 51/78/6
f 51/78/6 3/3/24 32/50/25
f 48/75/3 32/50/25 31/49/26
f 30/48/10 48/75/3 31/49/26
f 54/81/27 58/85/28 57/84/29
f 56/83/30 58/85/28 55/82/31
f 58/85/28 60/87/32 57/84/29
f 58/85/28 62/89/33 61/88/34
f 4/4/35 54/81/27 35/55/36
f 23/38/37 55/82/31 54/81/38
f 21/36/39 55/82/31 22/37/40
f 3/3/24 56/83/30 21/36/39
f 27/43/23 59/86/41 56/83/30
f 59/86/41 29/47/21 62/89/33
f 62/89/33 7/10/42 20/34/43
f 61/88/34 20/34/43 19/32/44
f 61/88/34 18/30/45 60/87/46
f 60/87/32 8/12/47 33/51/48
f 57/84/29 33/51/48 34/53/49
f 35/55/36 57/84/29 34/53/49
f 63/90/50 67/94/51 66/93/52
f 65/92/53 67/94/51 64/91/54
f 67/94/51 69/96/55 66/93/52
f 67/94/51 71/98/56 70/97/57
f 8/13/58 63/90/50 11/19/59
f 18/31/45 64/91/60 63/90/50
f 20/35/43 64/91/60 19/33/44
f 7/11/42 65/92/53 20/35/43
f 36/58/18 68/95/61 65/92/53
f 68/95/61 38/62/15 71/98/56
f 71/98/56 5/6/62 24/39/63
f 70/97/64 24/39/63 25/40/65
f 70/97/64 26/41/66 69/96/55
f 69/96/55 6/8/67 9/15/68
f 66/93/69 9/15/68 10/17/70
f 11/19/59 66/93/69 10/17/70
f 72/99/71 76/103/72 75/102/73
f 74/101/74 76/103/72 73/100/75
f 76/103/72 78/105/76 75/102/73
f 76/103/72 80/107/77 79/106/78
f 6/7/67 72/99/71 9/16/68
f 14/25/79 73/100/75 72/99/71
f 12/21/80 73/100/75 13/24/81
f 2/2/82 74/101/74 12/21/80
f 44/71/83 77/104/84 74/101/85
f 77/104/84 42/69/86 80/107/87
f 80/107/77 4/4/88 35/56/36
f 79/106/78 35/56/36 34/54/49
f 79/106/78 33/52/48 78/105/76
f 78/105/76 8/14/58 11/20/59
f 75/102/73 11/20/59 10/18/70
f 9/16/68 75/102/73 10/18/70
f 81/108/89 85/112/90 84/111/91
f 83/110/92 85/112/90 82/109/93
f 85/112/90 87/114/94 84/111/91
f 85/112/90 89/116/95 88/115/96
f 2/2/97 81/108/89 44/71/83
f 17/29/98 82/109/99 81/108/89
f 15/27/100 82/109/99 16/28/101
f 1/1/9 83/110/92 15/27/100
f 30/48/10 86/113/102 83/110/92
f 86/113/102 32/50/25 89/116/95
f 89/116/95 3/3/24 21/36/39
f 88/115/103 21/36/39 22/37/40
f 88/115/103 23/38/37 87/114/94
f 87/114/94 4/4/104 42/69/86
f 84/111/105 42/69/86 43/70/106
f 44/71/83 84/111/105 43/70/106
f 90/117/107 94/121/108 93/120/109
f 92/119/110 94/121/108 91/118/111
f 94/121/108 96/123/112 93/120/109
f 94/121/108 98/125/113 97/124/114
f 6/8/115 90/117/107 14/26/79
f 26/41/66 91/118/111 90/117/116
f 24/39/63 91/118/111 25/40/65
f 5/6/62 92/119/110 24/39/63
f 39/64/12 95/122/117 92/119/110
f 95/122/117 41/68/11 98/125/113
f 98/125/113 1/1/9 15/27/100
f 97/124/114 15/27/100 16/28/101
f 97/124/114 17/29/98 96/123/118
f 96/123/112 2/2/119 12/22/80
f 93/120/109 12/22/80 13/23/81
f 14/26/79 93/120/109 13/23/81
f 45/72/1 46/73/5 49/76/2
f 47/74/4 50/77/16 49/76/2
f 49/76/2 52/79/8 51/78/6
f 49/76/2 50/77/16 53/80/7
f 1/1/120 41/67/11 45/72/1
f 41/67/11 40/65/13 46/73/5
f 39/63/12 47/74/4 46/73/5
f 5/5/62 38/61/15 47/74/4
f 38/61/15 37/59/121 50/77/16
f 50/77/16 37/59/121 36/57/18
f 53/80/7 36/57/18 7/9/42
f 52/79/8 53/80/7 29/46/21
f 52/79/8 28/44/22 27/42/23
f 51/78/6 27/42/23 3/3/122
f 48/75/3 51/78/123 32/50/25
f 30/48/10 45/72/124 48/75/3
f 54/81/27 55/82/31 58/85/28
f 56/83/30 59/86/41 58/85/28
f 58/85/28 61/88/34 60/87/32
f 58/85/28 59/86/41 62/89/33
f 4/4/104 23/38/37 54/81/27
f 23/38/37 22/37/40 55/82/31
f 21/36/39 56/83/125 55/82/31
f 3/3/126 27/43/23 56/83/30
f 27/43/23 28/45/22 59/86/41
f 59/86/41 28/45/22 29/47/21
f 62/89/33 29/47/21 7/10/127
f 61/88/34 62/89/128 20/34/43
f 61/88/34 19/32/44 18/30/45
f 60/87/32 18/30/45 8/12/58
f 57/84/29 60/87/32 33/51/48
f 35/55/36 54/81/27 57/84/29
f 63/90/50 64/91/54 67/94/51
f 65/92/53 68/95/129 67/94/51
f 67/94/51 70/97/57 69/96/55
f 67/94/51 68/95/129 71/98/56
f 8/13/58 18/31/45 63/90/50
f 18/31/45 19/33/44 64/91/60
f 20/35/43 65/92/53 64/91/60
f 7/11/42 36/58/18 65/92/53
f 36/58/18 37/60/121 68/95/61
f 68/95/61 37/60/121 38/62/15
f 71/98/56 38/62/15 5/6/62
f 70/97/64 71/98/56 24/39/63
f 70/97/64 25/40/65 26/41/66
f 69/96/55 26/41/66 6/8/67
f 66/93/69 69/96/55 9/15/68
f 11/19/59 63/90/50 66/93/69
f 72/99/71 73/100/75 76/103/72
f 74/101/74 77/104/84 76/103/72
f 76/103/72 79/106/78 78/105/76
f 76/103/72 77/104/84 80/107/77
f 6/7/130 14/25/79 72/99/71
f 14/25/79 13/24/81 73/100/75
f 12/21/80 74/101/74 73/100/75
f 2/2/97 44/71/83 74/101/74
f 44/71/83 43/70/106 77/104/84
f 77/104/84 43/70/106 42/69/86
f 80/107/77 42/69/86 4/4/104
f 79/106/78 80/107/77 35/56/36
f 79/106/78 34/54/49 33/52/48
f 78/105/76 33/52/48 8/14/131
f 75/102/73 78/105/132 11/20/59
f 9/16/68 72/99/133 75/102/73
f 81/108/89 82/109/93 85/112/90
f 83/110/92 86/113/134 85/112/90
f 85/112/90 88/115/96 87/114/94
f 85/112/90 86/113/134 89/116/95
f 2/2/97 17/29/98 81/108/89
f 17/29/98 16/28/101 82/109/99
f 15/27/100 83/110/92 82/109/99
f 1/1/9 30/48/10 83/110/92
f 30/48/10 31/49/26 86/113/102
f 86/113/102 31/49/26 32/50/25
f 89/116/95 32/50/25 3/3/24
f 88/115/103 89/116/95 21/36/39
f 88/115/103 22/37/40 23/38/37
f 87/114/94 23/38/37 4/4/104
f 84/111/105 87/114/94 42/69/86
f 44/71/83 81/108/89 84/111/105
f 90/117/107 91/118/111 94/121/108
f 92/119/110 95/122/117 94/121/108
f 94/121/108 97/124/114 96/123/112
f 94/121/108 95/122/117 98/125/113
f 6/8/67 26/41/66 90/117/107
f 26/41/66 25/40/65 91/118/111
f 24/39/63 92/119/135 91/118/111
f 5/6/136 39/64/12 92/119/110
f 39/64/12 40/66/13 95/122/117
f 95/122/117 40/66/13 41/68/11
f 98/125/113 41/68/11 1/1/137
f 97/124/114 98/125/138 15/27/100
f 97/124/114 16/28/101 17/29/98
f 96/123/112 17/29/98 2/2/97
f 93/120/109 96/123/112 12/22/80
f 14/26/79 90/117/107 93/120/109
